<?xml version="1.0" encoding="utf-8"?>
<!-- Generator: Adobe Illustrator 21.0.2, SVG Export Plug-In . SVG Version: 6.00 Build 0)  -->
<svg version="1.1" xmlns="http://www.w3.org/2000/svg" xmlns:xlink="http://www.w3.org/1999/xlink" x="0px" y="0px"
	 viewBox="0 0 6110 511.1" style="enable-background:new 0 0 6110 511.1;" xml:space="preserve">
<style type="text/css">
	.st0{fill:#FFFFFF;}
</style>
<g id="Layer_1" focusable="false">
	<path class="st0" d="M547.1,0H67.9C41.5,0,20,21.4,20,47.9v319.4c0,26.5,21.5,47.9,47.9,47.9h191.7l-16,47.9h-71.9
		c-13.3,0-24,10.7-24,24c0,13.3,10.7,24,24,24h271.5c13.3,0,24-10.7,24-24c0-13.3-10.7-24-24-24h-71.9l-16-47.9h191.7
		c26.5,0,47.9-21.5,47.9-47.9V47.9C595,21.4,573.5,0,547.1,0z M531.1,351.4H83.9V63.9h447.2V351.4z"/>
</g>
<g id="Layer_2">
	<path class="st0" d="M750,111.8c23.8,0,43.1-19.3,43.1-43.1S773.8,25.5,750,25.5s-43.1,19.3-43.1,43.1S726.2,111.8,750,111.8z
		 M1095,111.8c23.8,0,43.1-19.3,43.1-43.1s-19.3-43.1-43.1-43.1s-43.1,19.3-43.1,43.1S1071.2,111.8,1095,111.8z M1207.9,446.1
		l-39.5-98.8l-36.9,41.7l-1.8,16.4l24.9,62.2c4.5,11.2,15.3,18.1,26.7,18.1c3.6,0,7.2-0.6,10.7-2.1
		C1206.7,477.5,1213.8,460.8,1207.9,446.1L1207.9,446.1z M1177.2,257.6l-16.6-72.1c-4.1-18-16.7-33.1-33.7-40.3
		c-16.6-7.2-35-6-50.4,3c-20.4,12-35.7,31-43.2,53.4l-10.2,30.5l-14.4,9.2v-86.2c0-7.9-6.5-14.4-14.4-14.4H850.6
		c-7.9,0-14.4,6.5-14.4,14.4v86.2l-14.5-9.2l-10.2-30.5c-7.5-22.5-22.8-41.3-43.2-53.4c-15.5-9-33.8-10.2-50.4-3
		c-17,7.3-29.6,22.4-33.7,40.3l-16.5,72.1c-4.1,18,0.6,37,12.9,50.9l60.4,68.2l9.1,83.2c1.6,14.6,14,25.6,28.6,25.6
		c1.1,0,2.1-0.1,3.1-0.2c15.8-1.7,27.1-15.9,25.4-31.7l-9.1-83.4c-1.3-11.7-6.2-22.5-14-31.4l-38.9-44l15.8-63.2l6.1,18.3
		c3.7,11.2,10.7,21,22,29.3l45.9,29.2c4.1,2.6,10.9,4.1,15.5,4.5h143.7c4.6-0.4,11.3-1.9,15.5-4.5l45.9-29.2
		c11.3-8.3,18.3-18,22-29.3l6.1-18.3l15.8,63.2l-38.9,44c-7.8,8.9-12.7,19.8-14,31.4l-9.1,83.4c-1.7,15.8,9.7,30,25.4,31.7
		c1.1,0.1,2.1,0.2,3.1,0.2c14.5,0,27-10.9,28.6-25.6l9.1-83.2l60.4-68.2C1176.5,294.6,1181.3,275.6,1177.2,257.6z M676.6,347.3
		l-39.5,98.8c-5.9,14.7,1.3,31.4,16,37.4c15.1,5.9,31.5-1.5,37.4-16l24.9-62.2l-1.8-16.4C713.5,388.9,676.6,347.3,676.6,347.3z"/>
</g>
<g id="Layer_3">
	<path class="st0" d="M1682.8,119.8h-288.5c-79.7,0-144.3,64.6-144.3,144.3s64.6,144.3,144.3,144.3c40.4,0,76.8-16.6,103-43.3h82.5
		c26.1,26.7,62.7,43.3,103,43.3c79.7,0,144.3-64.6,144.3-144.3S1762.5,119.8,1682.8,119.8z M1480.8,282.1c0,6-4.9,10.8-10.8,10.8
		h-46.9v46.9c0,6-4.9,10.8-10.8,10.8h-36.1c-6,0-10.8-4.9-10.8-10.8v-46.9h-46.9c-6,0-10.8-4.9-10.8-10.8v-36.1
		c0-6,4.9-10.8,10.8-10.8h46.9v-46.9c0-6,4.9-10.8,10.8-10.8h36.1c6,0,10.8,4.9,10.8,10.8v46.9h46.9c6,0,10.8,4.9,10.8,10.8V282.1z
		 M1646.7,343.4c-23.9,0-43.3-19.4-43.3-43.3s19.4-43.3,43.3-43.3s43.3,19.4,43.3,43.3S1670.6,343.4,1646.7,343.4z M1718.8,271.3
		c-23.9,0-43.3-19.4-43.3-43.3s19.4-43.3,43.3-43.3c23.9,0,43.3,19.4,43.3,43.3S1742.7,271.3,1718.8,271.3z"/>
</g>
<g id="Layer_4">
	<path class="st0" d="M2154.4,4c-158.9,0-287.5,128.6-287.5,287.5v53.9c0,13.6,7.7,26.1,19.9,32.1l16.2,8.1
		c2.3,67.5,57.7,121.5,125.7,121.5h27c14.9,0,27-12.1,27-27V282.5c0-14.9-12.1-27-27-27h-27c-35.2,0-67,14.5-89.8,37.8v-1.8
		c0-118.9,96.7-215.6,215.6-215.6c118.9,0,215.6,96.7,215.6,215.6v1.8c-22.8-23.3-54.6-37.8-89.8-37.8h-27c-14.9,0-27,12.1-27,27
		v197.7c0,14.9,12.1,27,27,27h27c68,0,123.4-54,125.7-121.5l16.2-8.1c12.2-6.1,19.9-18.5,19.9-32.1v-53.9
		C2441.9,132.6,2313.3,4,2154.4,4z"/>
</g>
<g id="Layer_5">
	<path class="st0" d="M2717.7,4.6c-99.4,19.4-179.5,99.3-199.1,198.4c-37,187,131.7,326.4,258.8,306.7c41.2-6.4,61.4-54.6,42.5-91.7
		c-23.1-45.4,9.9-98.4,60.9-98.4h79.7c35.8,0,64.8-29.6,64.9-65.3C3024.9,96.7,2881.5-27.3,2717.7,4.6z M2609.4,319.6
		c-17.7,0-32-14.3-32-32s14.3-32,32-32c17.7,0,32,14.3,32,32S2627.1,319.6,2609.4,319.6z M2641.4,191.6c-17.7,0-32-14.3-32-32
		s14.3-32,32-32c17.7,0,32,14.3,32,32S2659.1,191.6,2641.4,191.6z M2769.4,127.6c-17.7,0-32-14.3-32-32s14.3-32,32-32
		c17.7,0,32,14.3,32,32S2787.1,127.6,2769.4,127.6z M2897.4,191.6c-17.7,0-32-14.3-32-32s14.3-32,32-32c17.7,0,32,14.3,32,32
		S2915.1,191.6,2897.4,191.6z"/>
</g>
<g id="Layer_6">
	<path class="st0" d="M3599.5,53.1l-45.2-45.2c-12.5-12.5-32.8-12.5-45.3,0l-67.9,67.9c-12.5,12.5-12.5,32.8,0,45.3l-54.2,54.1
		c-45.4-29-100.4-28.9-133.5,4.2c-9.7,9.7-16.4,21.2-20.5,33.9c-6.1,18.8-23.5,33.1-42.7,34.9c-24,2.3-46.3,11.6-63.4,28.8
		c-46.2,46.1-37.9,129.1,18.3,185.3s139.2,64.4,185.3,18.3c17.2-17.1,26.5-39.4,28.8-63.5c1.8-19.1,16.1-36.6,34.9-42.7
		c12.7-4.1,24.2-10.8,33.9-20.5c33.1-33.1,33.1-88.1,4.2-133.5l54.2-54.2c12.5,12.5,32.8,12.5,45.3,0l67.9-67.9
		C3612,85.9,3612,65.6,3599.5,53.1L3599.5,53.1z M3304.9,350.5c-26.5,0-48-21.5-48-48s21.5-48,48-48s48,21.5,48,48
		S3331.4,350.5,3304.9,350.5z"/>
</g>
<g id="Layer_7">
	<path class="st0" d="M3859.9-0.3c-16.2-1.5-31.2,8.4-35.3,24.1l-14.8,56.3c187.6,5.5,314.5,130.6,322.5,317l56.9-15.8
		c15.7-4.4,25.5-19.7,23.6-35.9C4191.9,164.6,4041.8,16.9,3859.9-0.3z M3801.4,111.7l-99.9,379.5c-2.3,8.7,2.9,17.5,11.5,19.8
		c2.8,0.7,5.7,0.7,8.5-0.1l379-105.1C4096.3,230.9,3977.5,113.7,3801.4,111.7L3801.4,111.7z M3829,415.5c-17.7,0-32-14.3-32-32
		s14.3-32,32-32s32,14.3,32,32S3846.7,415.5,3829,415.5z M3877,263.5c-17.7,0-32-14.3-32-32s14.3-32,32-32s32,14.3,32,32
		S3894.7,263.5,3877,263.5z M3981,367.5c-17.7,0-32-14.3-32-32s14.3-32,32-32s32,14.3,32,32S3998.7,367.5,3981,367.5z"/>
</g>
<g id="Layer_8">
	<path class="st0" d="M4758.3,378l-79.9-90.5h30.6c9,0,17-5,20.8-13.1c3.8-8,2.5-17.3-3.3-24l-78.1-90.9h28.9
		c9.1,0,17.3-5.4,20.9-13.6c3.5-8.1,1.9-17.6-4.2-24.1L4583.7,4.4c-6-6.4-17.3-6.4-23.3,0l-110.3,117.5c-6.1,6.5-7.8,15.9-4.2,24.1
		c3.6,8.3,11.8,13.6,20.9,13.6h28.9l-78.1,90.9c-5.8,6.8-7.1,16-3.3,24c3.8,8,11.8,13,20.8,13h30.6l-79.9,90.5
		c-6,6.8-7.4,16.1-3.6,24.3c3.8,8,12,13.2,21,13.2H4540V440l-30.3,48.4c-5.3,10.6,2.4,23.2,14.3,23.2h96c11.9,0,19.6-12.5,14.3-23.2
		L4604,440v-24.5h136.9c9,0,17.3-5.2,21-13.2C4765.7,394.1,4764.3,384.8,4758.3,378z"/>
</g>
<g id="Layer_9">
	<path class="st0" d="M5223.8,170.5c-21.4,0-113.5,2.1-172.8,91.3v-91.3c0-56.3-45.8-102-102-102c-18.8,0-34,15.2-34,34
		s15.2,34,34,34c18.7,0,34,15.3,34,34v272.1c0,37.5,30.5,68,68,68h187c9.4,0,17-7.6,17-17v-17c0-18.8-15.2-34-34-34h-34l136-102v153
		c0,9.4,7.6,17,17,17h34c9.4,0,17-7.6,17-17V274.5c-10.9,2.8-22.2,4.8-34,4.8C5291.4,279.3,5236.4,232.5,5223.8,170.5z M5391,68.5
		h-68l-68-68v142.8c0,56.3,45.7,102,102,102c56.3,0,102-45.7,102-102V0.5L5391,68.5z M5314.5,153.5c-9.4,0-17-7.6-17-17
		c0-9.4,7.6-17,17-17s17,7.6,17,17C5331.5,145.9,5323.9,153.5,5314.5,153.5z M5399.5,153.5c-9.4,0-17-7.6-17-17c0-9.4,7.6-17,17-17
		s17,7.6,17,17C5416.6,145.9,5408.9,153.5,5399.5,153.5z"/>
</g>
<g id="Layer_10">
	<path class="st0" d="M5600.3,204.4c31.8,0,57.6-25.8,57.6-57.6s-25.8-57.6-57.6-57.6s-57.6,25.8-57.6,57.6
		S5568.5,204.4,5600.3,204.4z M6003.7,204.4c31.8,0,57.6-25.8,57.6-57.6s-25.8-57.6-57.6-57.6s-57.6,25.8-57.6,57.6
		S5971.9,204.4,6003.7,204.4z M6032.6,233.3h-57.6c-15.9,0-30.2,6.4-40.6,16.8c36.3,19.9,62.1,55.8,67.6,98.5h59.4
		c15.9,0,28.8-12.9,28.8-28.8v-28.8C6090.2,259.1,6064.3,233.3,6032.6,233.3z M5802,233.3c55.7,0,100.9-45.1,100.9-100.9
		S5857.7,31.5,5802,31.5s-100.9,45.1-100.9,100.9S5746.3,233.3,5802,233.3z M5871.2,262.1h-7.5c-18.7,9-39.5,14.4-61.7,14.4
		s-42.9-5.4-61.7-14.4h-7.5c-57.3,0-103.8,46.5-103.8,103.8v25.9c0,23.9,19.4,43.2,43.2,43.2h259.4c23.9,0,43.2-19.4,43.2-43.2
		v-25.9C5974.9,308.6,5928.4,262.1,5871.2,262.1z M5669.7,250c-10.4-10.4-24.8-16.8-40.6-16.8h-57.6c-31.8,0-57.6,25.8-57.6,57.6
		v28.8c0,15.9,12.9,28.8,28.8,28.8h59.4C5607.6,305.9,5633.4,269.9,5669.7,250L5669.7,250z"/>
	<text transform="matrix(1 0 0 1 5261 -27)" style="font-family:'MyriadPro-Regular'; font-size:12px;">Lorem ipsum</text>
</g>
</svg>
